ffmpeg started on 2025-05-12 at 18:35:12
Report written to "D:\Convert\FFMetrics\reports\psnr_report-6.txt"
Log level: 32
Command line:
ffmpeg -hide_banner -nostdin -i "G:\\\xc0\xed\xe8\xec\xe5\\\xce\xed\xe3\xee\xe8\xed\xe3\xe8\\!_35_\xcb\xe5\xf2\xee_2024\\DreamCast\\\xcf\xee\xea\xe0-\xef\xee\xea\xe0, \xc7\xe5\xec\xeb\xff\\[DC] Bye Bye Earth - 02_Telegram_HEVC.mkv" -i "G:\\\xc0\xed\xe8\xec\xe5\\\xce\xed\xe3\xee\xe8\xed\xe3\xe8\\!_35_\xcb\xe5\xf2\xee_2024\\DreamCast\\\xcf\xee\xea\xe0-\xef\xee\xea\xe0, \xc7\xe5\xec\xeb\xff\\[DC] Bye Bye Earth - 02_Telegram.mp4" -lavfi "[0:v]settb=AVTB,setpts=PTS-STARTPTS,format=pix_fmts=yuv420p10,fps=24000/1001,scale=1920:1080:flags=bicubic[main];[1:v]settb=AVTB,setpts=PTS-STARTPTS,format=pix_fmts=yuv420p,fps=24000/1001,scale=1920:1080:flags=bicubic[ref];[main][ref]psnr=eof_action=endall:stats_file='D\\:/Convert/FFMetrics/logs/psnr_logfile-6.txt'" -f null -
Input #0, matroska,webm, from 'G:\Аниме\Онгоинги\!_35_Лето_2024\DreamCast\Пока-пока, Земля\[DC] Bye Bye Earth - 02_Telegram_HEVC.mkv':
  Metadata:
    COMPATIBLE_BRANDS: isomiso2avc1mp41
    MAJOR_BRAND     : isom
    MINOR_VERSION   : 512
    ENCODER         : Lavf61.7.100
  Duration: 00:23:48.52, start: -0.021000, bitrate: 1261 kb/s
  Stream #0:0: Video: hevc (Main 10), yuv420p10le(tv, bt709, progressive), 1920x1080 [SAR 1:1 DAR 16:9], 23.98 fps, 23.98 tbr, 1k tbn (default)
      Metadata:
        HANDLER_NAME    : VideoHandler
        VENDOR_ID       : [0][0][0][0]
        ENCODER         : Lavc61.19.100 libx265
        BPS             : 1065300
        DURATION        : 00:23:46.549708333
        NUMBER_OF_FRAMES: 34203
        NUMBER_OF_BYTES : 189962988
        _STATISTICS_WRITING_APP: mkvpropedit v66.0.0 ('Josie') 64-bit
        _STATISTICS_WRITING_DATE_UTC: 2025-05-09 15:20:02
        _STATISTICS_TAGS: BPS DURATION NUMBER_OF_FRAMES NUMBER_OF_BYTES
  Stream #0:1: Audio: aac (LC), 48000 Hz, stereo, fltp (default)
      Metadata:
        HANDLER_NAME    : SoundHandler
        VENDOR_ID       : [0][0][0][0]
        ENCODER         : Lavc61.19.100 aac
        BPS             : 193906
        DURATION        : 00:23:48.522000000
        NUMBER_OF_FRAMES: 66963
        NUMBER_OF_BYTES : 34624880
        _STATISTICS_WRITING_APP: mkvpropedit v66.0.0 ('Josie') 64-bit
        _STATISTICS_WRITING_DATE_UTC: 2025-05-09 15:20:02
        _STATISTICS_TAGS: BPS DURATION NUMBER_OF_FRAMES NUMBER_OF_BYTES
Input #1, mov,mp4,m4a,3gp,3g2,mj2, from 'G:\Аниме\Онгоинги\!_35_Лето_2024\DreamCast\Пока-пока, Земля\[DC] Bye Bye Earth - 02_Telegram.mp4':
  Metadata:
    major_brand     : isom
    minor_version   : 512
    compatible_brands: isomiso2avc1mp41
    encoder         : Lavf61.1.100
  Duration: 00:23:48.46, start: 0.000000, bitrate: 3806 kb/s
  Stream #1:0[0x1](und): Video: h264 (High) (avc1 / 0x31637661), yuv420p(tv, bt709, progressive), 1920x1080 [SAR 1:1 DAR 16:9], 3663 kb/s, 23.98 fps, 23.98 tbr, 24k tbn (default)
      Metadata:
        handler_name    : VideoHandler
        vendor_id       : [0][0][0][0]
        encoder         : Lavc61.3.100 h264_qsv
  Stream #1:1[0x2](und): Audio: aac (HE-AACv2) (mp4a / 0x6134706D), 48000 Hz, stereo, fltp, 144 kb/s (default)
      Metadata:
        handler_name    : SoundHandler
        vendor_id       : [0][0][0][0]
Stream mapping:
  Stream #0:0 (hevc) -> settb:default
  Stream #1:0 (h264) -> settb:default
  psnr:default -> Stream #0:0 (wrapped_avframe)
  Stream #0:1 -> #0:1 (aac (native) -> pcm_s16le (native))
Output #0, null, to 'pipe:':
  Metadata:
    COMPATIBLE_BRANDS: isomiso2avc1mp41
    MAJOR_BRAND     : isom
    MINOR_VERSION   : 512
    encoder         : Lavf61.7.100
  Stream #0:0: Video: wrapped_avframe, yuv420p10le(tv, bt709, progressive), 1920x1080 [SAR 1:1 DAR 16:9], q=2-31, 200 kb/s, 23.98 fps, 23.98 tbn
      Metadata:
        encoder         : Lavc61.19.100 wrapped_avframe
  Stream #0:1: Audio: pcm_s16le, 48000 Hz, stereo, s16, 1536 kb/s (default)
      Metadata:
        HANDLER_NAME    : SoundHandler
        VENDOR_ID       : [0][0][0][0]
        _STATISTICS_TAGS: BPS DURATION NUMBER_OF_FRAMES NUMBER_OF_BYTES
        BPS             : 193906
        DURATION        : 00:23:48.522000000
        NUMBER_OF_FRAMES: 66963
        NUMBER_OF_BYTES : 34624880
        _STATISTICS_WRITING_APP: mkvpropedit v66.0.0 ('Josie') 64-bit
        _STATISTICS_WRITING_DATE_UTC: 2025-05-09 15:20:02
        encoder         : Lavc61.19.100 pcm_s16le
frame=  170 fps=0.0 q=-0.0 size=N/A time=00:00:07.09 bitrate=N/A speed=13.6x    frame=  362 fps=352 q=-0.0 size=N/A time=00:00:15.09 bitrate=N/A speed=14.7x    frame=  618 fps=398 q=-0.0 size=N/A time=00:00:25.77 bitrate=N/A speed=16.6x    frame=  830 fps=403 q=-0.0 size=N/A time=00:00:34.61 bitrate=N/A speed=16.8x    frame= 1074 fps=416 q=-0.0 size=N/A time=00:00:44.79 bitrate=N/A speed=17.3x    frame= 1297 fps=420 q=-0.0 size=N/A time=00:00:54.09 bitrate=N/A speed=17.5x    frame= 1530 fps=423 q=-0.0 size=N/A time=00:01:03.81 bitrate=N/A speed=17.7x    frame= 1746 fps=424 q=-0.0 size=N/A time=00:01:12.82 bitrate=N/A speed=17.7x    frame= 1919 fps=413 q=-0.0 size=N/A time=00:01:20.03 bitrate=N/A speed=17.2x    frame= 2114 fps=410 q=-0.0 size=N/A time=00:01:28.17 bitrate=N/A speed=17.1x    frame= 2339 fps=412 q=-0.0 size=N/A time=00:01:37.55 bitrate=N/A speed=17.2x    frame= 2541 fps=411 q=-0.0 size=N/A time=00:01:45.98 bitrate=N/A speed=17.1x    frame= 2737 fps=408 q=-0.0 size=N/A time=00:01:54.15 bitrate=N/A speed=  17x    frame= 2926 fps=405 q=-0.0 size=N/A time=00:02:02.03 bitrate=N/A speed=16.9x    frame= 3097 fps=401 q=-0.0 size=N/A time=00:02:09.17 bitrate=N/A speed=16.7x    frame= 3320 fps=402 q=-0.0 size=N/A time=00:02:18.47 bitrate=N/A speed=16.8x    frame= 3520 fps=402 q=-0.0 size=N/A time=00:02:26.81 bitrate=N/A speed=16.8x    frame= 3750 fps=404 q=-0.0 size=N/A time=00:02:36.40 bitrate=N/A speed=16.8x    frame= 3923 fps=401 q=-0.0 size=N/A time=00:02:43.62 bitrate=N/A speed=16.7x    frame= 4159 fps=403 q=-0.0 size=N/A time=00:02:53.46 bitrate=N/A speed=16.8x    frame= 4410 fps=407 q=-0.0 size=N/A time=00:03:03.93 bitrate=N/A speed=  17x    frame= 4666 fps=411 q=-0.0 size=N/A time=00:03:14.61 bitrate=N/A speed=17.1x    frame= 4934 fps=416 q=-0.0 size=N/A time=00:03:25.78 bitrate=N/A speed=17.3x    frame= 5191 fps=420 q=-0.0 size=N/A time=00:03:36.50 bitrate=N/A speed=17.5x    frame= 5443 fps=422 q=-0.0 size=N/A time=00:03:47.01 bitrate=N/A speed=17.6x    frame= 5682 fps=424 q=-0.0 size=N/A time=00:03:56.98 bitrate=N/A speed=17.7x    frame= 5909 fps=424 q=-0.0 size=N/A time=00:04:06.45 bitrate=N/A speed=17.7x    frame= 6123 fps=424 q=-0.0 size=N/A time=00:04:15.38 bitrate=N/A speed=17.7x    frame= 6365 fps=426 q=-0.0 size=N/A time=00:04:25.47 bitrate=N/A speed=17.8x    frame= 6632 fps=429 q=-0.0 size=N/A time=00:04:36.60 bitrate=N/A speed=17.9x    frame= 6914 fps=432 q=-0.0 size=N/A time=00:04:48.37 bitrate=N/A speed=  18x    frame= 7177 fps=435 q=-0.0 size=N/A time=00:04:59.34 bitrate=N/A speed=18.2x    frame= 7443 fps=437 q=-0.0 size=N/A time=00:05:10.43 bitrate=N/A speed=18.2x    frame= 7713 fps=440 q=-0.0 size=N/A time=00:05:21.69 bitrate=N/A speed=18.4x    frame= 7967 fps=441 q=-0.0 size=N/A time=00:05:32.29 bitrate=N/A speed=18.4x    frame= 8208 fps=442 q=-0.0 size=N/A time=00:05:42.34 bitrate=N/A speed=18.4x    frame= 8483 fps=445 q=-0.0 size=N/A time=00:05:53.81 bitrate=N/A speed=18.5x    frame= 8761 fps=447 q=-0.0 size=N/A time=00:06:05.40 bitrate=N/A speed=18.6x    frame= 9032 fps=449 q=-0.0 size=N/A time=00:06:16.70 bitrate=N/A speed=18.7x    frame= 9310 fps=451 q=-0.0 size=N/A time=00:06:28.30 bitrate=N/A speed=18.8x    frame= 9576 fps=453 q=-0.0 size=N/A time=00:06:39.39 bitrate=N/A speed=18.9x    frame= 9833 fps=454 q=-0.0 size=N/A time=00:06:50.11 bitrate=N/A speed=18.9x    frame=10079 fps=454 q=-0.0 size=N/A time=00:07:00.37 bitrate=N/A speed=18.9x    frame=10340 fps=456 q=-0.0 size=N/A time=00:07:11.26 bitrate=N/A speed=  19x    frame=10590 fps=456 q=-0.0 size=N/A time=00:07:21.69 bitrate=N/A speed=  19x    frame=10823 fps=456 q=-0.0 size=N/A time=00:07:31.40 bitrate=N/A speed=  19x    frame=11064 fps=456 q=-0.0 size=N/A time=00:07:41.46 bitrate=N/A speed=  19x    frame=11248 fps=454 q=-0.0 size=N/A time=00:07:49.13 bitrate=N/A speed=18.9x    frame=11475 fps=454 q=-0.0 size=N/A time=00:07:58.60 bitrate=N/A speed=18.9x    frame=11682 fps=453 q=-0.0 size=N/A time=00:08:07.23 bitrate=N/A speed=18.9x    frame=11898 fps=452 q=-0.0 size=N/A time=00:08:16.24 bitrate=N/A speed=18.9x    frame=12129 fps=452 q=-0.0 size=N/A time=00:08:25.88 bitrate=N/A speed=18.9x    frame=12361 fps=452 q=-0.0 size=N/A time=00:08:35.55 bitrate=N/A speed=18.9x    frame=12629 fps=453 q=-0.0 size=N/A time=00:08:46.73 bitrate=N/A speed=18.9x    frame=12848 fps=453 q=-0.0 size=N/A time=00:08:55.86 bitrate=N/A speed=18.9x    frame=13124 fps=454 q=-0.0 size=N/A time=00:09:07.38 bitrate=N/A speed=18.9x    frame=13399 fps=456 q=-0.0 size=N/A time=00:09:18.84 bitrate=N/A speed=  19x    frame=13681 fps=457 q=-0.0 size=N/A time=00:09:30.61 bitrate=N/A speed=19.1x    frame=13916 fps=457 q=-0.0 size=N/A time=00:09:40.41 bitrate=N/A speed=19.1x    frame=14167 fps=458 q=-0.0 size=N/A time=00:09:50.88 bitrate=N/A speed=19.1x    frame=14392 fps=457 q=-0.0 size=N/A time=00:10:00.26 bitrate=N/A speed=19.1x    frame=14626 fps=457 q=-0.0 size=N/A time=00:10:10.02 bitrate=N/A speed=19.1x    frame=14893 fps=458 q=-0.0 size=N/A time=00:10:21.16 bitrate=N/A speed=19.1x    frame=15165 fps=459 q=-0.0 size=N/A time=00:10:32.50 bitrate=N/A speed=19.2x    frame=15438 fps=460 q=-0.0 size=N/A time=00:10:43.89 bitrate=N/A speed=19.2x    frame=15689 fps=461 q=-0.0 size=N/A time=00:10:54.36 bitrate=N/A speed=19.2x    frame=15965 fps=462 q=-0.0 size=N/A time=00:11:05.87 bitrate=N/A speed=19.3x    frame=16213 fps=462 q=-0.0 size=N/A time=00:11:16.21 bitrate=N/A speed=19.3x    frame=16483 fps=463 q=-0.0 size=N/A time=00:11:27.47 bitrate=N/A speed=19.3x    frame=16758 fps=464 q=-0.0 size=N/A time=00:11:38.94 bitrate=N/A speed=19.4x    frame=17043 fps=465 q=-0.0 size=N/A time=00:11:50.83 bitrate=N/A speed=19.4x    frame=17315 fps=466 q=-0.0 size=N/A time=00:12:02.17 bitrate=N/A speed=19.4x    frame=17600 fps=467 q=-0.0 size=N/A time=00:12:14.06 bitrate=N/A speed=19.5x    frame=17870 fps=468 q=-0.0 size=N/A time=00:12:25.32 bitrate=N/A speed=19.5x    frame=18103 fps=468 q=-0.0 size=N/A time=00:12:35.04 bitrate=N/A speed=19.5x    frame=18314 fps=467 q=-0.0 size=N/A time=00:12:43.84 bitrate=N/A speed=19.5x    frame=18566 fps=467 q=-0.0 size=N/A time=00:12:54.35 bitrate=N/A speed=19.5x    frame=18788 fps=467 q=-0.0 size=N/A time=00:13:03.61 bitrate=N/A speed=19.5x    frame=19042 fps=467 q=-0.0 size=N/A time=00:13:14.21 bitrate=N/A speed=19.5x    frame=19316 fps=468 q=-0.0 size=N/A time=00:13:25.63 bitrate=N/A speed=19.5x    frame=19591 fps=469 q=-0.0 size=N/A time=00:13:37.10 bitrate=N/A speed=19.6x    frame=19868 fps=470 q=-0.0 size=N/A time=00:13:48.66 bitrate=N/A speed=19.6x    frame=20136 fps=470 q=-0.0 size=N/A time=00:13:59.83 bitrate=N/A speed=19.6x    frame=20391 fps=471 q=-0.0 size=N/A time=00:14:10.47 bitrate=N/A speed=19.6x    frame=20666 fps=471 q=-0.0 size=N/A time=00:14:21.94 bitrate=N/A speed=19.7x    frame=20886 fps=471 q=-0.0 size=N/A time=00:14:31.12 bitrate=N/A speed=19.6x    frame=21137 fps=471 q=-0.0 size=N/A time=00:14:41.58 bitrate=N/A speed=19.6x    frame=21421 fps=472 q=-0.0 size=N/A time=00:14:53.43 bitrate=N/A speed=19.7x    frame=21672 fps=472 q=-0.0 size=N/A time=00:15:03.90 bitrate=N/A speed=19.7x    frame=21935 fps=472 q=-0.0 size=N/A time=00:15:14.87 bitrate=N/A speed=19.7x    frame=22201 fps=473 q=-0.0 size=N/A time=00:15:25.96 bitrate=N/A speed=19.7x    frame=22484 fps=473 q=-0.0 size=N/A time=00:15:37.77 bitrate=N/A speed=19.7x    frame=22739 fps=474 q=-0.0 size=N/A time=00:15:48.40 bitrate=N/A speed=19.8x    frame=23022 fps=474 q=-0.0 size=N/A time=00:16:00.20 bitrate=N/A speed=19.8x    frame=23243 fps=474 q=-0.0 size=N/A time=00:16:09.42 bitrate=N/A speed=19.8x    frame=23454 fps=473 q=-0.0 size=N/A time=00:16:18.22 bitrate=N/A speed=19.7x    frame=23701 fps=473 q=-0.0 size=N/A time=00:16:28.52 bitrate=N/A speed=19.7x    frame=23980 fps=474 q=-0.0 size=N/A time=00:16:40.16 bitrate=N/A speed=19.8x    frame=24243 fps=475 q=-0.0 size=N/A time=00:16:51.13 bitrate=N/A speed=19.8x    frame=24495 fps=475 q=-0.0 size=N/A time=00:17:01.64 bitrate=N/A speed=19.8x    frame=24762 fps=475 q=-0.0 size=N/A time=00:17:12.78 bitrate=N/A speed=19.8x    frame=25023 fps=475 q=-0.0 size=N/A time=00:17:23.66 bitrate=N/A speed=19.8x    frame=25256 fps=475 q=-0.0 size=N/A time=00:17:33.38 bitrate=N/A speed=19.8x    frame=25497 fps=475 q=-0.0 size=N/A time=00:17:43.43 bitrate=N/A speed=19.8x    frame=25742 fps=475 q=-0.0 size=N/A time=00:17:53.65 bitrate=N/A speed=19.8x    frame=25996 fps=475 q=-0.0 size=N/A time=00:18:04.24 bitrate=N/A speed=19.8x    frame=26244 fps=475 q=-0.0 size=N/A time=00:18:14.59 bitrate=N/A speed=19.8x    frame=26483 fps=475 q=-0.0 size=N/A time=00:18:24.56 bitrate=N/A speed=19.8x    frame=26738 fps=475 q=-0.0 size=N/A time=00:18:35.19 bitrate=N/A speed=19.8x    frame=26970 fps=475 q=-0.0 size=N/A time=00:18:44.87 bitrate=N/A speed=19.8x    frame=27195 fps=475 q=-0.0 size=N/A time=00:18:54.25 bitrate=N/A speed=19.8x    frame=27438 fps=475 q=-0.0 size=N/A time=00:19:04.39 bitrate=N/A speed=19.8x    frame=27661 fps=474 q=-0.0 size=N/A time=00:19:13.69 bitrate=N/A speed=19.8x    frame=27893 fps=474 q=-0.0 size=N/A time=00:19:23.37 bitrate=N/A speed=19.8x    frame=28134 fps=474 q=-0.0 size=N/A time=00:19:33.42 bitrate=N/A speed=19.8x    frame=28394 fps=474 q=-0.0 size=N/A time=00:19:44.26 bitrate=N/A speed=19.8x    frame=28654 fps=474 q=-0.0 size=N/A time=00:19:55.11 bitrate=N/A speed=19.8x    frame=28898 fps=474 q=-0.0 size=N/A time=00:20:05.28 bitrate=N/A speed=19.8x    frame=29112 fps=474 q=-0.0 size=N/A time=00:20:14.21 bitrate=N/A speed=19.8x    frame=29371 fps=474 q=-0.0 size=N/A time=00:20:25.01 bitrate=N/A speed=19.8x    frame=29580 fps=473 q=-0.0 size=N/A time=00:20:33.73 bitrate=N/A speed=19.7x    frame=29823 fps=473 q=-0.0 size=N/A time=00:20:43.86 bitrate=N/A speed=19.7x    frame=30096 fps=474 q=-0.0 size=N/A time=00:20:55.25 bitrate=N/A speed=19.8x    frame=30346 fps=474 q=-0.0 size=N/A time=00:21:05.68 bitrate=N/A speed=19.8x    frame=30609 fps=474 q=-0.0 size=N/A time=00:21:16.65 bitrate=N/A speed=19.8x    frame=30885 fps=475 q=-0.0 size=N/A time=00:21:28.16 bitrate=N/A speed=19.8x    frame=31117 fps=474 q=-0.0 size=N/A time=00:21:37.83 bitrate=N/A speed=19.8x    frame=31352 fps=474 q=-0.0 size=N/A time=00:21:47.63 bitrate=N/A speed=19.8x    frame=31602 fps=474 q=-0.0 size=N/A time=00:21:58.06 bitrate=N/A speed=19.8x    frame=31811 fps=474 q=-0.0 size=N/A time=00:22:06.78 bitrate=N/A speed=19.8x    frame=31943 fps=472 q=-0.0 size=N/A time=00:22:12.28 bitrate=N/A speed=19.7x    frame=32091 fps=471 q=-0.0 size=N/A time=00:22:18.46 bitrate=N/A speed=19.6x    frame=32232 fps=469 q=-0.0 size=N/A time=00:22:24.34 bitrate=N/A speed=19.6x    frame=32410 fps=468 q=-0.0 size=N/A time=00:22:31.76 bitrate=N/A speed=19.5x    frame=32574 fps=467 q=-0.0 size=N/A time=00:22:38.60 bitrate=N/A speed=19.5x    frame=32742 fps=466 q=-0.0 size=N/A time=00:22:45.61 bitrate=N/A speed=19.4x    frame=32899 fps=465 q=-0.0 size=N/A time=00:22:52.16 bitrate=N/A speed=19.4x    frame=33039 fps=464 q=-0.0 size=N/A time=00:22:58.00 bitrate=N/A speed=19.3x    frame=33177 fps=462 q=-0.0 size=N/A time=00:23:03.75 bitrate=N/A speed=19.3x    frame=33314 fps=461 q=-0.0 size=N/A time=00:23:09.47 bitrate=N/A speed=19.2x    frame=33454 fps=459 q=-0.0 size=N/A time=00:23:15.31 bitrate=N/A speed=19.2x    frame=33610 fps=458 q=-0.0 size=N/A time=00:23:21.81 bitrate=N/A speed=19.1x    frame=33769 fps=457 q=-0.0 size=N/A time=00:23:28.44 bitrate=N/A speed=19.1x    frame=33997 fps=457 q=-0.0 size=N/A time=00:23:37.95 bitrate=N/A speed=19.1x    [Parsed_psnr_10 @ 00000295c322c600] PSNR y:48.224045 u:50.593218 v:50.518737 average:48.871406 min:38.743916 max:inf
[out#0/null @ 00000295c22754c0] video:14697KiB audio:267852KiB subtitle:0KiB other streams:0KiB global headers:0KiB muxing overhead: unknown
frame=34203 fps=457 q=-0.0 Lsize=N/A time=00:23:46.55 bitrate=N/A speed=19.1x    
